<svg xmlns="http://www.w3.org/2000/svg" viewBox="0 0 500 500">
  <g fill-rule="nonzero" fill="none">
	<path fill="#FFC915" d="M0 0h500v500H0z"/>
	<path d="M206.815596 219.304631c7.835247 0 15.392648 2.662227 21.116269 7.373393v-6.30014H238.6706v68.5628h-10.738735v-6.272262C222.305491 287.351711 214.748089 290 206.815596 290c-9.724598 0-18.573982-3.610036-24.908863-10.161066-6.279312-6.467399-9.724598-15.38795-9.724598-25.130865 0-9.756853 3.459179-18.705281 9.724598-25.200558 6.348773-6.578906 15.198157-10.20288 24.908863-10.20288Zm-74.337604-.250891c8.793815 0 16.767985 3.219762 22.477713 9.087812 6.070928 6.244386 9.307829 15.011615 9.377291 25.381756v3.526406H109.02782c.666829 12.879045 10.460888 22.440761 23.200111 22.440761 9.141122 0 15.684387-3.916679 20.602255-12.321511l.597368-1.0175 9.307829 6.007434-.541799.933869c-6.307096 10.885861-16.670738 16.642404-29.979545 16.642404-20.074348 0-34.091662-14.509834-34.091662-35.277993 0-20.517268 14.447974-35.403438 34.355615-35.403438Zm285.667004 0c8.793815 0 16.767985 3.219762 22.477713 9.087812 6.070928 6.244386 9.30783 15.011615 9.377291 25.381756v3.526406h-55.305177c.66683 12.879045 10.460889 22.440761 23.200112 22.440761 9.141122 0 15.684387-3.916679 20.602255-12.321511l.597369-1.0175 9.307828 6.007434-.541798.933869c-6.307097 10.885861-16.67074 16.642404-29.979546 16.642404-20.074348 0-34.091661-14.509834-34.105553-35.277993 0-20.517268 14.461866-35.403438 34.369506-35.403438Zm-324.162518 1.184761v10.244696H62.863765v58.443549H52v-68.688245h41.982478Zm255.312366-.93387c15.559357 0 25.228386 10.7186 25.228386 27.974291v41.522379h-10.863765v-41.522379c0-10.774353-6.154282-17.729596-15.684387-17.729596-12.252993 0-16.61517 8.474524-16.61517 16.405452v42.860461h-10.863765V247.29286c0-10.941613-5.959789-17.729595-15.559356-17.729595-7.904709 0-16.351217 6.160755-16.351217 15.332197v43.877962h-10.863765v-68.548861h10.863765v6.648598c4.487208-4.906303 10.877657-7.56853 18.337813-7.56853 11.044365 0 17.087508 5.603221 20.338302 10.913737 4.945652-6.955243 12.864253-10.913737 22.033159-10.913737ZM263.621139 200v88.801301h-10.863765V200h10.863765Zm-57.347343 30.218368c-13.239344 0-23.227895 10.537401-23.227895 24.503639 0 13.896546 9.988551 24.364256 23.227895 24.378194 13.739468 0 22.963944-9.798668 22.963944-24.378194 0-14.649218-9.224476-24.503639-22.963944-24.503639Zm-74.045865-.933871c-10.947118 0-20.08824 7.303702-22.699989 17.924733h43.760689c-1.917135-10.774353-10.22472-17.924733-21.0607-17.924733Zm285.653112 0c-10.947119 0-20.08824 7.303702-22.69999 17.924733h43.76069c-1.917135-10.774353-10.224719-17.924733-21.0607-17.924733Z" fill="#111"/>
  </g>
</svg>